<?xml version="1.0" standalone="no"?>
<!DOCTYPE svg PUBLIC "-//W3C//DTD SVG 20010904//EN"
 "http://www.w3.org/TR/2001/REC-SVG-20010904/DTD/svg10.dtd">
<svg version="1.0" xmlns="http://www.w3.org/2000/svg"
 width="1280.000000pt" height="1280.000000pt" viewBox="0 0 1280.000000 1280.000000"
 preserveAspectRatio="xMidYMid meet">
<metadata>
Created by potrace 1.15, written by Peter Selinger 2001-2017
</metadata>
<g transform="translate(0.000000,1280.000000) scale(0.100000,-0.100000)"
fill="#dfe0df61" stroke="none">
<path d="M6185 12791 c-12 -11 -185 -19 -201 -9 -6 4 -37 1 -70 -6 -32 -8
-111 -19 -174 -26 -63 -6 -144 -16 -180 -22 -36 -6 -102 -12 -148 -13 -46 -2
-88 -8 -95 -13 -17 -14 -224 -55 -243 -48 -8 3 -41 -3 -72 -14 -94 -33 -225
-69 -233 -65 -15 10 -149 -26 -207 -55 -34 -18 -81 -33 -105 -35 -24 -1 -54
-6 -68 -10 -37 -10 -169 -65 -219 -90 -25 -13 -108 -49 -185 -80 -77 -32 -200
-86 -274 -121 -74 -35 -140 -64 -148 -64 -7 0 -36 -11 -63 -25 -28 -14 -51
-25 -52 -24 -7 4 -191 -97 -278 -152 -52 -32 -105 -63 -117 -69 -38 -16 -105
-62 -163 -110 -85 -71 -208 -153 -220 -145 -5 3 -14 -2 -18 -13 -4 -10 -56
-56 -117 -102 -304 -230 -708 -591 -842 -753 -58 -70 -148 -173 -243 -277 -62
-69 -310 -399 -310 -413 0 -6 -10 -22 -23 -36 -34 -37 -161 -237 -205 -323
-60 -114 -153 -281 -167 -298 -21 -24 -165 -317 -165 -335 0 -9 -9 -33 -19
-53 -11 -21 -49 -112 -85 -203 -37 -90 -71 -173 -76 -184 -41 -88 -140 -394
-155 -480 -4 -21 -13 -51 -20 -65 -16 -32 -70 -261 -85 -364 -7 -44 -16 -90
-21 -103 -10 -28 -55 -322 -63 -417 -4 -38 -9 -73 -12 -77 -16 -26 -31 -334
-32 -643 -1 -192 -3 -350 -5 -352 -4 -4 20 -272 32 -364 6 -41 13 -100 15
-130 5 -59 36 -257 60 -380 8 -41 20 -104 26 -140 17 -95 68 -297 90 -358 11
-30 18 -57 15 -62 -9 -14 103 -344 190 -559 45 -113 97 -242 115 -286 33 -81
160 -343 207 -425 62 -108 128 -227 149 -265 43 -80 163 -271 193 -307 17 -20
31 -41 31 -47 0 -6 37 -61 82 -123 88 -120 171 -225 370 -467 158 -192 647
-644 910 -841 48 -36 87 -69 88 -75 0 -11 189 -147 250 -180 20 -11 66 -41
101 -67 36 -26 86 -56 112 -67 26 -11 47 -24 47 -29 0 -5 15 -16 33 -23 17 -7
60 -33 95 -56 34 -24 65 -43 67 -43 3 0 91 -45 195 -99 104 -55 204 -104 222
-109 18 -6 80 -31 138 -57 221 -98 564 -227 674 -254 26 -6 68 -20 92 -31 23
-11 51 -20 60 -20 9 0 56 -11 103 -24 122 -34 263 -67 351 -82 41 -7 95 -17
120 -22 67 -15 179 -34 225 -37 51 -4 203 -22 325 -40 52 -7 117 -12 143 -11
26 1 50 -1 53 -6 3 -5 33 -8 67 -8 34 1 161 -2 282 -6 147 -4 252 -2 315 5 52
7 142 14 200 15 58 2 179 14 270 25 91 12 220 28 288 36 67 8 128 17 134 21
14 9 63 19 191 39 54 8 115 22 135 31 20 8 57 17 81 20 24 2 79 15 123 29 43
14 87 25 96 25 9 0 30 7 47 16 16 8 71 26 122 40 90 24 308 106 578 218 72 30
139 57 150 60 11 4 76 35 145 71 69 35 159 81 200 101 75 37 298 168 355 208
17 12 43 27 59 34 16 7 77 47 135 88 58 41 134 94 168 117 142 96 458 360 707
592 152 141 424 433 498 535 18 25 41 52 50 60 23 20 274 358 290 390 6 14 22
36 33 50 96 112 444 748 546 995 135 326 222 554 263 692 25 83 46 158 46 166
0 8 9 43 21 78 22 70 80 318 97 414 5 33 22 123 36 200 14 77 30 190 36 250
38 435 40 470 39 815 -2 355 -8 500 -30 639 -6 41 -13 100 -14 130 -6 99 -45
333 -65 391 -5 14 -12 48 -15 75 -8 69 -74 350 -92 392 -8 20 -16 48 -18 63
-3 29 -39 151 -80 275 -25 76 -128 339 -207 530 -70 169 -176 386 -273 555
-45 80 -93 163 -105 185 -57 103 -155 261 -180 289 -15 17 -33 42 -40 56 -22
42 -269 374 -321 432 -19 21 -62 70 -96 110 -121 141 -221 253 -249 280 -16
15 -69 67 -119 116 -120 117 -396 357 -531 461 -60 47 -116 93 -124 102 -55
65 -687 467 -784 499 -20 6 -58 26 -84 44 -60 40 -292 156 -314 156 -8 0 -42
12 -74 26 -140 64 -460 190 -584 231 -249 82 -289 94 -312 95 -36 1 -179 37
-215 54 -18 8 -70 19 -115 24 -46 5 -109 19 -140 30 -32 11 -75 20 -95 20 -21
0 -54 5 -73 11 -19 5 -66 12 -105 14 -38 3 -122 12 -185 20 -188 26 -319 37
-421 35 -61 -1 -99 2 -104 9 -8 14 -427 15 -440 2z"/>
<path d="M3604 12154 c-18 -14 -18 -15 4 -4 12 6 22 13 22 15 0 8 -5 6 -26
-11z"/>
</g>
</svg>
